<svg width="100%" viewBox="0 0 800 520" xmlns="http://www.w3.org/2000/svg" role="img">
  <title>Projects — AnomalyDetection, BLU-PATH, CropGuard, AI Voice Thinker</title>
  <desc>Four featured project cards</desc>

  <!-- Project 1: AnomalyDetection -->
  <rect x="0" y="0" width="390" height="240" rx="10" fill="#161b22" stroke="#21262d" stroke-width="1"/>
  <rect x="0" y="0" width="4" height="240" rx="2" fill="#1D9E75"/>
  <text x="20" y="28" font-family="'Segoe UI', system-ui, sans-serif" font-size="13" font-weight="700" fill="#e6edf3">AnomalyDetection</text>
  <text x="20" y="46" font-family="'Segoe UI', system-ui, sans-serif" font-size="11" fill="#8b949e">Vision-based restricted area security system</text>
  <line x1="20" y1="54" x2="370" y2="54" stroke="#21262d" stroke-width="0.5"/>
  <text x="20" y="72" font-family="'Segoe UI', system-ui, sans-serif" font-size="11" fill="#c9d1d9">Real-time YOLOv8 + MediaPipe surveillance.</text>
  <text x="20" y="88" font-family="'Segoe UI', system-ui, sans-serif" font-size="11" fill="#c9d1d9">Reduced response time ~70% via dual-channel</text>
  <text x="20" y="104" font-family="'Segoe UI', system-ui, sans-serif" font-size="11" fill="#c9d1d9">alerting. NLP log verification cuts false positives</text>
  <text x="20" y="120" font-family="'Segoe UI', system-ui, sans-serif" font-size="11" fill="#c9d1d9">by ~35%. International conference presentation.</text>

  <rect x="20" y="134" width="58" height="18" rx="9" fill="#1a2a24"/>
  <text x="49" y="146" text-anchor="middle" font-family="'Segoe UI', system-ui, sans-serif" font-size="10" fill="#5DCAA5">YOLOv8</text>

  <rect x="84" y="134" width="70" height="18" rx="9" fill="#1a2a24"/>
  <text x="119" y="146" text-anchor="middle" font-family="'Segoe UI', system-ui, sans-serif" font-size="10" fill="#5DCAA5">MediaPipe</text>

  <rect x="160" y="134" width="54" height="18" rx="9" fill="#1a2a24"/>
  <text x="187" y="146" text-anchor="middle" font-family="'Segoe UI', system-ui, sans-serif" font-size="10" fill="#5DCAA5">OpenCV</text>

  <rect x="220" y="134" width="36" height="18" rx="9" fill="#0d1117"/>
  <text x="238" y="146" text-anchor="middle" font-family="'Segoe UI', system-ui, sans-serif" font-size="10" fill="#8b949e">NLP</text>

  <rect x="262" y="134" width="48" height="18" rx="9" fill="#0d1117"/>
  <text x="286" y="146" text-anchor="middle" font-family="'Segoe UI', system-ui, sans-serif" font-size="10" fill="#8b949e">Twilio</text>

  <rect x="316" y="134" width="58" height="18" rx="9" fill="#0d1117"/>
  <text x="345" y="146" text-anchor="middle" font-family="'Segoe UI', system-ui, sans-serif" font-size="10" fill="#8b949e">AWS EC2</text>

  <rect x="20" y="162" width="120" height="18" rx="9" fill="#132a1c" stroke="#1D9E75" stroke-width="0.5"/>
  <text x="80" y="174" text-anchor="middle" font-family="'Segoe UI', system-ui, sans-serif" font-size="10" fill="#1D9E75">Conference Paper</text>

  <text x="370" y="220" text-anchor="end" font-family="'Segoe UI', system-ui, sans-serif" font-size="11" fill="#1D9E75">github.com/ramprasathvelu →</text>

  <!-- Project 2: BLU-PATH -->
  <rect x="410" y="0" width="390" height="240" rx="10" fill="#161b22" stroke="#21262d" stroke-width="1"/>
  <rect x="410" y="0" width="4" height="240" rx="2" fill="#534AB7"/>
  <text x="430" y="28" font-family="'Segoe UI', system-ui, sans-serif" font-size="13" font-weight="700" fill="#e6edf3">BLU-PATH</text>
  <text x="430" y="46" font-family="'Segoe UI', system-ui, sans-serif" font-size="11" fill="#8b949e">Embedded web-based indoor navigation</text>
  <line x1="430" y1="54" x2="790" y2="54" stroke="#21262d" stroke-width="0.5"/>
  <text x="430" y="72" font-family="'Segoe UI', system-ui, sans-serif" font-size="11" fill="#c9d1d9">BRD2605A as standalone Wi-Fi AP + embedded</text>
  <text x="430" y="88" font-family="'Segoe UI', system-ui, sans-serif" font-size="11" fill="#c9d1d9">web server. Scan QR → connect → navigate campus.</text>
  <text x="430" y="104" font-family="'Segoe UI', system-ui, sans-serif" font-size="11" fill="#c9d1d9">Zero internet. Zero app install. Scalable to</text>
  <text x="430" y="120" font-family="'Segoe UI', system-ui, sans-serif" font-size="11" fill="#c9d1d9">hospitals, corporates, and campuses.</text>

  <rect x="430" y="134" width="66" height="18" rx="9" fill="#1e1b3a"/>
  <text x="463" y="146" text-anchor="middle" font-family="'Segoe UI', system-ui, sans-serif" font-size="10" fill="#AFA9EC">BRD2605A</text>

  <rect x="502" y="134" width="28" height="18" rx="9" fill="#1e1b3a"/>
  <text x="516" y="146" text-anchor="middle" font-family="'Segoe UI', system-ui, sans-serif" font-size="10" fill="#AFA9EC">C</text>

  <rect x="536" y="134" width="90" height="18" rx="9" fill="#0d1117"/>
  <text x="581" y="146" text-anchor="middle" font-family="'Segoe UI', system-ui, sans-serif" font-size="10" fill="#8b949e">WiseConnect SDK</text>

  <rect x="632" y="134" width="82" height="18" rx="9" fill="#0d1117"/>
  <text x="673" y="146" text-anchor="middle" font-family="'Segoe UI', system-ui, sans-serif" font-size="10" fill="#8b949e">Embedded HTTP</text>

  <text x="790" y="220" text-anchor="end" font-family="'Segoe UI', system-ui, sans-serif" font-size="11" fill="#7F77DD">github.com/ramprasathvelu →</text>

  <!-- Project 3: CropGuard -->
  <rect x="0" y="260" width="390" height="240" rx="10" fill="#161b22" stroke="#21262d" stroke-width="1"/>
  <rect x="0" y="260" width="4" height="240" rx="2" fill="#639922"/>
  <text x="20" y="288" font-family="'Segoe UI', system-ui, sans-serif" font-size="13" font-weight="700" fill="#e6edf3">CropGuard</text>
  <text x="20" y="306" font-family="'Segoe UI', system-ui, sans-serif" font-size="11" fill="#8b949e">Crop disease severity ML classifier</text>
  <line x1="20" y1="314" x2="370" y2="314" stroke="#21262d" stroke-width="0.5"/>
  <text x="20" y="332" font-family="'Segoe UI', system-ui, sans-serif" font-size="11" fill="#c9d1d9">Random Forest + XGBoost ensemble model for</text>
  <text x="20" y="348" font-family="'Segoe UI', system-ui, sans-serif" font-size="11" fill="#c9d1d9">multi-class crop disease severity prediction.</text>
  <text x="20" y="364" font-family="'Segoe UI', system-ui, sans-serif" font-size="11" fill="#c9d1d9">Deployed on AWS EC2 with Streamlit interface.</text>
  <text x="20" y="380" font-family="'Segoe UI', system-ui, sans-serif" font-size="11" fill="#c9d1d9">SDG-2 aligned — precision agriculture.</text>

  <rect x="20" y="394" width="86" height="18" rx="9" fill="#182b0e"/>
  <text x="63" y="406" text-anchor="middle" font-family="'Segoe UI', system-ui, sans-serif" font-size="10" fill="#97C459">Random Forest</text>

  <rect x="112" y="394" width="64" height="18" rx="9" fill="#182b0e"/>
  <text x="144" y="406" text-anchor="middle" font-family="'Segoe UI', system-ui, sans-serif" font-size="10" fill="#97C459">XGBoost</text>

  <rect x="182" y="394" width="56" height="18" rx="9" fill="#0d1117"/>
  <text x="210" y="406" text-anchor="middle" font-family="'Segoe UI', system-ui, sans-serif" font-size="10" fill="#8b949e">Streamlit</text>

  <rect x="244" y="394" width="56" height="18" rx="9" fill="#0d1117"/>
  <text x="272" y="406" text-anchor="middle" font-family="'Segoe UI', system-ui, sans-serif" font-size="10" fill="#8b949e">AWS EC2</text>

  <rect x="20" y="422" width="48" height="18" rx="9" fill="#1a2b14" stroke="#639922" stroke-width="0.5"/>
  <text x="44" y="434" text-anchor="middle" font-family="'Segoe UI', system-ui, sans-serif" font-size="10" fill="#97C459">SDG 2</text>

  <text x="370" y="480" text-anchor="end" font-family="'Segoe UI', system-ui, sans-serif" font-size="11" fill="#639922">github.com/ramprasathvelu →</text>

  <!-- Project 4: AI Voice Thinker -->
  <rect x="410" y="260" width="390" height="240" rx="10" fill="#161b22" stroke="#21262d" stroke-width="1"/>
  <rect x="410" y="260" width="4" height="240" rx="2" fill="#D85A30"/>
  <text x="430" y="288" font-family="'Segoe UI', system-ui, sans-serif" font-size="13" font-weight="700" fill="#e6edf3">AI Voice Thinker</text>
  <text x="430" y="306" font-family="'Segoe UI', system-ui, sans-serif" font-size="11" fill="#8b949e">Offline voice-controlled home automation</text>
  <line x1="430" y1="314" x2="790" y2="314" stroke="#21262d" stroke-width="0.5"/>
  <text x="430" y="332" font-family="'Segoe UI', system-ui, sans-serif" font-size="11" fill="#c9d1d9">AI-Thinker VC-02 (US516P6) + ESP32 via UART.</text>
  <text x="430" y="348" font-family="'Segoe UI', system-ui, sans-serif" font-size="11" fill="#c9d1d9">Wake-word detection controls appliances via</text>
  <text x="430" y="364" font-family="'Segoe UI', system-ui, sans-serif" font-size="11" fill="#c9d1d9">relay modules. Sub-100ms latency, 98%+</text>
  <text x="430" y="380" font-family="'Segoe UI', system-ui, sans-serif" font-size="11" fill="#c9d1d9">recognition accuracy. Zero cloud dependency.</text>

  <rect x="430" y="394" width="96" height="18" rx="9" fill="#2a1a14"/>
  <text x="478" y="406" text-anchor="middle" font-family="'Segoe UI', system-ui, sans-serif" font-size="10" fill="#F0997B">AI-Thinker VC-02</text>

  <rect x="532" y="394" width="44" height="18" rx="9" fill="#2a1a14"/>
  <text x="554" y="406" text-anchor="middle" font-family="'Segoe UI', system-ui, sans-serif" font-size="10" fill="#F0997B">ESP32</text>

  <rect x="582" y="394" width="44" height="18" rx="9" fill="#0d1117"/>
  <text x="604" y="406" text-anchor="middle" font-family="'Segoe UI', system-ui, sans-serif" font-size="10" fill="#8b949e">UART</text>

  <rect x="632" y="394" width="28" height="18" rx="9" fill="#0d1117"/>
  <text x="646" y="406" text-anchor="middle" font-family="'Segoe UI', system-ui, sans-serif" font-size="10" fill="#8b949e">C</text>

  <text x="790" y="480" text-anchor="end" font-family="'Segoe UI', system-ui, sans-serif" font-size="11" fill="#D85A30">github.com/ramprasathvelu →</text>
</svg>
