<svg width="100%" viewBox="0 0 800 300" xmlns="http://www.w3.org/2000/svg" role="img">
  <title>Skills — Hardware, VLSI, ML, Software</title>
  <desc>Four skill category cards</desc>

  <!-- Card 1: Hardware & Embedded -->
  <rect x="0" y="0" width="192" height="290" rx="10" fill="#161b22" stroke="#21262d" stroke-width="1"/>
  <rect x="0" y="0" width="192" height="4" rx="2" fill="#1D9E75"/>
  <text x="16" y="26" font-family="'Segoe UI', system-ui, sans-serif" font-size="11" font-weight="600" fill="#1D9E75">⚙ HARDWARE &amp; EMBEDDED</text>

  <rect x="12" y="36" width="72" height="20" rx="10" fill="#1a2a24"/>
  <text x="48" y="50" text-anchor="middle" font-family="'Segoe UI', system-ui, sans-serif" font-size="11" fill="#5DCAA5">ESP32</text>

  <rect x="90" y="36" width="90" height="20" rx="10" fill="#1a2a24"/>
  <text x="135" y="50" text-anchor="middle" font-family="'Segoe UI', system-ui, sans-serif" font-size="11" fill="#5DCAA5">BRD2605A</text>

  <rect x="12" y="62" width="68" height="20" rx="10" fill="#1a2a24"/>
  <text x="46" y="76" text-anchor="middle" font-family="'Segoe UI', system-ui, sans-serif" font-size="11" fill="#5DCAA5">Arduino</text>

  <rect x="86" y="62" width="94" height="20" rx="10" fill="#0d1117"/>
  <text x="133" y="76" text-anchor="middle" font-family="'Segoe UI', system-ui, sans-serif" font-size="11" fill="#8b949e">UART/SPI/I2C</text>

  <rect x="12" y="88" width="68" height="20" rx="10" fill="#0d1117"/>
  <text x="46" y="102" text-anchor="middle" font-family="'Segoe UI', system-ui, sans-serif" font-size="11" fill="#8b949e">GPIO &amp; Relay</text>

  <rect x="86" y="88" width="94" height="20" rx="10" fill="#0d1117"/>
  <text x="133" y="102" text-anchor="middle" font-family="'Segoe UI', system-ui, sans-serif" font-size="11" fill="#8b949e">PCB Design</text>

  <rect x="12" y="114" width="110" height="20" rx="10" fill="#0d1117"/>
  <text x="67" y="128" text-anchor="middle" font-family="'Segoe UI', system-ui, sans-serif" font-size="11" fill="#8b949e">Sensor Integration</text>

  <rect x="128" y="114" width="52" height="20" rx="10" fill="#0d1117"/>
  <text x="154" y="128" text-anchor="middle" font-family="'Segoe UI', system-ui, sans-serif" font-size="11" fill="#8b949e">MicroPy</text>

  <!-- Card 2: VLSI -->
  <rect x="202" y="0" width="192" height="290" rx="10" fill="#161b22" stroke="#21262d" stroke-width="1"/>
  <rect x="202" y="0" width="192" height="4" rx="2" fill="#534AB7"/>
  <text x="218" y="26" font-family="'Segoe UI', system-ui, sans-serif" font-size="11" font-weight="600" fill="#7F77DD">◈ VLSI &amp; DIGITAL DESIGN</text>

  <rect x="214" y="36" width="88" height="20" rx="10" fill="#1e1b3a"/>
  <text x="258" y="50" text-anchor="middle" font-family="'Segoe UI', system-ui, sans-serif" font-size="11" fill="#AFA9EC">Verilog HDL</text>

  <rect x="308" y="36" width="78" height="20" rx="10" fill="#1e1b3a"/>
  <text x="347" y="50" text-anchor="middle" font-family="'Segoe UI', system-ui, sans-serif" font-size="11" fill="#AFA9EC">RTL Design</text>

  <rect x="214" y="62" width="96" height="20" rx="10" fill="#0d1117"/>
  <text x="262" y="76" text-anchor="middle" font-family="'Segoe UI', system-ui, sans-serif" font-size="11" fill="#8b949e">Icarus Verilog</text>

  <rect x="316" y="62" width="70" height="20" rx="10" fill="#0d1117"/>
  <text x="351" y="76" text-anchor="middle" font-family="'Segoe UI', system-ui, sans-serif" font-size="11" fill="#8b949e">YOSYS</text>

  <rect x="214" y="88" width="80" height="20" rx="10" fill="#0d1117"/>
  <text x="254" y="102" text-anchor="middle" font-family="'Segoe UI', system-ui, sans-serif" font-size="11" fill="#8b949e">Magic VLSI</text>

  <rect x="300" y="88" width="86" height="20" rx="10" fill="#0d1117"/>
  <text x="343" y="102" text-anchor="middle" font-family="'Segoe UI', system-ui, sans-serif" font-size="11" fill="#8b949e">OpenSTA</text>

  <rect x="214" y="114" width="86" height="20" rx="10" fill="#0d1117"/>
  <text x="257" y="128" text-anchor="middle" font-family="'Segoe UI', system-ui, sans-serif" font-size="11" fill="#8b949e">CTS / Routing</text>

  <rect x="306" y="114" width="80" height="20" rx="10" fill="#0d1117"/>
  <text x="346" y="128" text-anchor="middle" font-family="'Segoe UI', system-ui, sans-serif" font-size="11" fill="#8b949e">CMOS Basics</text>

  <!-- Card 3: ML -->
  <rect x="404" y="0" width="192" height="290" rx="10" fill="#161b22" stroke="#21262d" stroke-width="1"/>
  <rect x="404" y="0" width="192" height="4" rx="2" fill="#D85A30"/>
  <text x="420" y="26" font-family="'Segoe UI', system-ui, sans-serif" font-size="11" font-weight="600" fill="#F0997B">◉ ML &amp; DATA SCIENCE</text>

  <rect x="416" y="36" width="56" height="20" rx="10" fill="#2a1a14"/>
  <text x="444" y="50" text-anchor="middle" font-family="'Segoe UI', system-ui, sans-serif" font-size="11" fill="#F0997B">Python</text>

  <rect x="478" y="36" width="68" height="20" rx="10" fill="#2a1a14"/>
  <text x="512" y="50" text-anchor="middle" font-family="'Segoe UI', system-ui, sans-serif" font-size="11" fill="#F0997B">YOLOv8</text>

  <rect x="416" y="62" width="86" height="20" rx="10" fill="#2a1a14"/>
  <text x="459" y="76" text-anchor="middle" font-family="'Segoe UI', system-ui, sans-serif" font-size="11" fill="#F0997B">Scikit-learn</text>

  <rect x="508" y="62" width="80" height="20" rx="10" fill="#0d1117"/>
  <text x="548" y="76" text-anchor="middle" font-family="'Segoe UI', system-ui, sans-serif" font-size="11" fill="#8b949e">XGBoost</text>

  <rect x="416" y="88" width="64" height="20" rx="10" fill="#0d1117"/>
  <text x="448" y="102" text-anchor="middle" font-family="'Segoe UI', system-ui, sans-serif" font-size="11" fill="#8b949e">OpenCV</text>

  <rect x="486" y="88" width="100" height="20" rx="10" fill="#0d1117"/>
  <text x="536" y="102" text-anchor="middle" font-family="'Segoe UI', system-ui, sans-serif" font-size="11" fill="#8b949e">MediaPipe</text>

  <rect x="416" y="114" width="96" height="20" rx="10" fill="#0d1117"/>
  <text x="464" y="128" text-anchor="middle" font-family="'Segoe UI', system-ui, sans-serif" font-size="11" fill="#8b949e">Pandas/NumPy</text>

  <rect x="518" y="114" width="70" height="20" rx="10" fill="#0d1117"/>
  <text x="553" y="128" text-anchor="middle" font-family="'Segoe UI', system-ui, sans-serif" font-size="11" fill="#8b949e">Matplotlib</text>

  <!-- Card 4: Software & Cloud -->
  <rect x="606" y="0" width="194" height="290" rx="10" fill="#161b22" stroke="#21262d" stroke-width="1"/>
  <rect x="606" y="0" width="194" height="4" rx="2" fill="#185FA5"/>
  <text x="622" y="26" font-family="'Segoe UI', system-ui, sans-serif" font-size="11" font-weight="600" fill="#85B7EB">☁ SOFTWARE &amp; CLOUD</text>

  <rect x="618" y="36" width="80" height="20" rx="10" fill="#0e1e2e"/>
  <text x="658" y="50" text-anchor="middle" font-family="'Segoe UI', system-ui, sans-serif" font-size="11" fill="#85B7EB">AWS EC2/S3</text>

  <rect x="704" y="36" width="88" height="20" rx="10" fill="#0e1e2e"/>
  <text x="748" y="50" text-anchor="middle" font-family="'Segoe UI', system-ui, sans-serif" font-size="11" fill="#85B7EB">Java &amp; C</text>

  <rect x="618" y="62" width="86" height="20" rx="10" fill="#0d1117"/>
  <text x="661" y="76" text-anchor="middle" font-family="'Segoe UI', system-ui, sans-serif" font-size="11" fill="#8b949e">MQTT/EMQX</text>

  <rect x="710" y="62" width="82" height="20" rx="10" fill="#0d1117"/>
  <text x="751" y="76" text-anchor="middle" font-family="'Segoe UI', system-ui, sans-serif" font-size="11" fill="#8b949e">MySQL/Mongo</text>

  <rect x="618" y="88" width="70" height="20" rx="10" fill="#0d1117"/>
  <text x="653" y="102" text-anchor="middle" font-family="'Segoe UI', system-ui, sans-serif" font-size="11" fill="#8b949e">Git/GitHub</text>

  <rect x="694" y="88" width="50" height="20" rx="10" fill="#0d1117"/>
  <text x="719" y="102" text-anchor="middle" font-family="'Segoe UI', system-ui, sans-serif" font-size="11" fill="#8b949e">Linux</text>

  <rect x="618" y="114" width="90" height="20" rx="10" fill="#0d1117"/>
  <text x="663" y="128" text-anchor="middle" font-family="'Segoe UI', system-ui, sans-serif" font-size="11" fill="#8b949e">HTML/CSS/JS</text>

  <rect x="714" y="114" width="78" height="20" rx="10" fill="#0d1117"/>
  <text x="753" y="128" text-anchor="middle" font-family="'Segoe UI', system-ui, sans-serif" font-size="11" fill="#8b949e">Streamlit</text>
</svg>
